<?xml version="1.0" encoding="UTF-8"?>
<svg id="Layer_1" xmlns="http://www.w3.org/2000/svg" version="1.1" viewBox="231.33 405.61 119.25 26.61">
  <!-- Generator: Adobe Illustrator 30.3.0, SVG Export Plug-In . SVG Version: 2.1.3 Build 182)  -->
  <defs>
    <style>
      .st0 {
        fill: #fff;
      }
    </style>
  </defs>
  <path class="st0" d="M248.69,430.87c-.85,0-1.7-.03-2.55-.07-.31-.03-.61-.07-.88-.14-.07-.03-.14-.03-.17-.07l-.2-.1c-.14-.07-.2-.17-.27-.27-.07-.17-.14-.37-.14-.54-.03-.1-.03-.24-.03-.34v-.07c-.03-.24-.03-.48,0-.71-.03-.24,0-.48,0-.71v-.65c0-.07,0-.1-.03-.17t.03-.07c0-2.14-.03-2.17-.03-4.32v-.41c-.03-.44-.07-.88-.14-1.32-.14-.95-.58-2.31-1.73-2.31-.78,0-1.29.65-1.43,1.36,0,0-.07,4.65-.07,6.97.03.03.03.07.03.1-.03.03-.03.07-.03.14v.65c0,.27.03.58,0,.85.03.17,0,.37,0,.54v.1c0,.1,0,.24-.03.34-.03.24-.07.48-.2.65-.03.07-.1.14-.2.17-.03.03-.07.07-.14.07-.14.14-.71.2-.88.2-.92.1-1.83.14-2.75.14s-1.8-.03-2.72-.1c-.31-.03-.61-.07-.92-.14-.07,0-.1-.03-.17-.07l-.2-.1c-.1-.07-.2-.17-.27-.27-.07-.17-.1-.34-.14-.54,0-.1,0-.24-.03-.34v-8.8c0-1.94-.03-6.29-.07-9.45v-2.82c.03-.14.03-.24.03-.37.03-.17.07-.37.17-.51.03-.14.14-.24.24-.31l.2-.1c.07,0,.1-.03.17-.07.31-.07.61-.1.92-.1.92-.07,1.8-.1,2.72-.1s1.83.03,2.72.1c.24.03.44.07.68.1.07.03.14.07.24.1.03.03.07.07.14.07.07.07.14.1.17.17.14.2.2.44.24.65,0,.14,0,.24.03.37v4.18c1.53-1.29,3.26-2.04,5.27-2.17,1.53,0,3.06.24,4.25,1.33.51.41.95.92,1.29,1.5.65.99,1.26,2.51,1.26,3.7.14,3.23.07,6.8.07,10.19v2.38c-.03.1-.03.24-.03.34-.03.24-.1.48-.2.65-.07.07-.14.14-.2.17-.03.03-.1.03-.14.07-.07.03-.17.07-.24.1-.24.03-.44.1-.68.1-.95.07-1.94.1-2.92.1Z"/>
  <path class="st0" d="M268.58,430.84c-.92,0-1.83,0-2.75-.07-.2-.03-.44-.07-.65-.1-.07-.03-.17-.07-.24-.1-.03,0-.1-.03-.14-.07-.07-.03-.14-.07-.2-.14-.14-.17-.17-.37-.2-.58,0-.07,0-.14-.03-.17-.27.17-.58.31-.88.41-1.12.61-2.45.78-3.7.78-.34,0-.68,0-1.05-.03-4.66-.44-6.52-3.98-6.52-6.49,0-4.38,3.33-6.69,7.44-6.69,1.53,0,2.82.27,4.21,1.02,0-.27-.03-.54-.1-.78,0-.07-.03-.14-.03-.2-.2-.54-.71-.88-1.26-1.09-.58-.17-1.19-.31-1.8-.31-1.12,0-2.92.31-3.84.48-.48.1-.99.2-1.46.31-.31.07-.61.14-.95.1-.17,0-.34-.07-.44-.2-.14-.2-.17-.44-.17-.68-.03-.34-.03-.68-.03-1.05.03-.71.03-1.33.1-2.14,0-.24.03-.48.1-.68.03-.2.14-.37.27-.51.54-.54,2.45-.95,3.19-1.09.07,0,.14-.03.2-.03,1.43-.24,2.89-.51,4.32-.51,2.41,0,5.27.54,7.24,1.9,2.21,1.53,3.7,4.11,3.7,6.35,0,1.87.14,5.64.14,7.51v3.47c0,.14-.03.24-.03.34-.03.17-.07.34-.14.48-.07.1-.17.2-.27.24l-.2.1s-.1.03-.17.07c-.27.07-.58.1-.88.1-.92.07-1.83.07-2.75.07ZM262.9,425.47c.58,0,1.22-.27,1.43-.88l.03-2.48c-.2-.61-.85-.88-1.43-.88-.51,0-.99.2-1.29.54-.27.27-.41.61-.48.95-.17.75-.17,1.53.44,2.21.31.34.78.54,1.29.54Z"/>
  <path class="st0" d="M300.96,430.87c-.85,0-1.7-.03-2.55-.07-.31-.03-.61-.07-.88-.14-.07-.03-.14-.03-.17-.07l-.2-.1c-.1-.07-.2-.17-.27-.27-.07-.17-.1-.37-.14-.54-.03-.1-.03-.24-.03-.34v-.07c-.03-.24-.03-.48,0-.71v-1.53s0-.03,0-.07c0-2.14-.03-2.17-.03-4.32v-.41c-.03-.44-.07-.88-.14-1.32-.14-.95-.58-2.31-1.73-2.31-.78,0-1.29.61-1.43,1.33,0,2.31-.03,4.69-.03,7.03.03,0,.03.03.03.07s-.03.1-.03.14v.65c.03.31.03.58.03.85,0,.2,0,.37-.03.54v.1c0,.14,0,.24-.03.37-.03.2-.07.44-.2.61-.03.1-.24.2-.34.27-.07.03-.14.07-.24.07-.2.07-.41.1-.65.14-.85.07-1.7.1-2.55.1-.99,0-1.97-.03-2.92-.1-.31,0-.61-.03-.92-.14-.03,0-.07,0-.1-.03-.03,0-.07,0-.1-.03l-.2-.1c-.1-.07-.2-.17-.24-.27-.1-.17-.14-.34-.17-.54,0-.1,0-.24-.03-.34v-7.31c-.03-.37-.07-.75-.1-1.09-.07-.54-.24-1.05-.48-1.53-.31-.48-.78-.82-1.29-.82-.75,0-1.29.65-1.43,1.36,0,0-.03,4.69-.03,7v2.34c-.03.14-.03.24-.03.37-.03.2-.1.44-.2.65-.07.07-.14.1-.2.17-.03,0-.1.03-.14.07-.07.03-.17.07-.24.1-.2.03-.44.07-.68.1-.88.07-1.8.1-2.72.1s-1.83-.03-2.75-.1c-.31,0-.61-.03-.88-.1-.07-.03-.14-.07-.17-.07l-.2-.1c-.37-.17-.44-.85-.44-1.19v-.07c-.03-.2-.03-.44,0-.68-.03-.24,0-.48,0-.71v-.68s0-.07-.03-.14c0-.03.03-.07.03-.07v-6.42c0-2.31-.03-4.08-.03-6.97v-1.16c.03-.14.03-.24.03-.37.03-.17.07-.34.17-.51.03-.14.14-.24.24-.27.07-.07.14-.1.2-.1.07-.03.1-.07.17-.07.31-.1.61-.14.88-.14.99-.07,1.97-.1,2.96-.1.85,0,1.67.03,2.51.1.24.03.44.07.68.14.17,0,.48.2.54.34.14.17.2.41.2.61.03.14.03.24.03.37,1.6-1.26,3.19-2,5.27-2.14h.51c.34,0,.65.03.99.03.99.1,2,.37,2.75.82.37.2,1.26.78,1.46,1.16.58-.34,1.02-.61,1.05-.61.61-.34,1.33-.65,2.04-.85.99-.34,2.11-.51,3.19-.54h.27c1.43,0,2.89.34,3.98,1.33.51.41.95.92,1.29,1.5.71,1.09,1.19,2.38,1.29,3.7.1,3.23.03,6.8.03,10.19v2.38c0,.1-.03.24-.03.34-.03.24-.1.48-.2.65-.07.07-.14.14-.2.17-.03.03-.1.03-.14.07-.07.03-.17.07-.24.1-.2.03-.44.1-.65.1-.99.07-1.97.1-2.96.1Z"/>
  <path class="st0" d="M310.31,430.81c-.92-.17-2.11-.41-3.02-.68-.51-.14-1.05-.31-1.53-.54-.24-.14-.44-.31-.61-.51-.14-.2-.24-.48-.27-.71-.1-.51-.1-.99-.1-1.5,0-.54.07-1.09.1-1.63.03-.95.03-1.43.1-2.58.03-.31.03-.58.14-.85.07-.14.17-.27.34-.34.24-.14.54-.1.85-.1.17.07.27.1.41.14.07,0,.14.03.2.03.54.14,1.33.37,1.87.54.44.1.88.24,1.36.31.41.1.82.17,1.22.24.37.03.75.03,1.12-.07.27-.07.54-.34.48-.65-.17-.65-1.53-1.19-2.07-1.36-.65-.2-1.29-.41-1.94-.65-.99-.27-1.87-.65-2.68-1.26-.27-.24-.48-.54-.68-.82-.24-.37-.37-.78-.48-1.22-.1-.41-.14-.85-.1-1.29.03-.44.17-.85.37-1.26.07-.2.17-.44.31-.65.71-1.26,2.21-2.04,3.53-2.51,1.56-.51,3.26-.71,4.93-.68h1.39c1.09.03,4.89.65,5.71,1.46.17.14.27.31.31.51.07.2.1.44.1.71.07.78.07,1.39.1,2.14,0,.34,0,.68-.03,1.02,0,.44-.1.88-.65.88-.31.03-.65-.03-.95-.1-1.29-.24-2.99-.71-3.98-.54-.24.07-.51.17-.68.34-.31.24-.17.68.1.92.27.24.61.37.92.48.58.24,1.16.44,1.73.71,1.36.78,2.11,1.22,3.06,2.51.14.2.24.41.34.65.44.78.65,1.9.65,2.79,0,3.77-3.77,6.39-7.31,6.39h-.61c-1.36.1-2.72-.03-4.04-.27Z"/>
  <path class="st0" d="M330.87,431.21c-2.99,0-6.52-1.46-7-4.76-.17-1.09-.14-2.17-.14-3.3-.03-1.09-.03-2.21,0-3.33v-3.64c-.48,0-.95-.03-1.39-.03-.31,0-.58,0-.85-.1-.17-.03-.31-.2-.34-.34-.1-.34-.07-.68-.1-1.05,0-.92-.07-1.26-.03-2.17.03-.51,0-1.05.17-1.53,0-.03.07-.2.1-.24.07-.07.34-.17.41-.2.31-.07.58-.07.88-.07.24-.03.44-.07.68-.07.48-.03.99-.07,1.43-.24.24-.07.44-.2.65-.37.51-.48.92-1.05,1.26-1.67.24-.34.37-.71.61-1.05.1-.17.31-.31.48-.34.14-.03.27-.03.41-.07.24,0,.65-.03,1.09-.03.78,0,1.73.07,2.28.27,0,0,.03.03.07.03.07,0,.17.03.24.1.03,0,.1.03.14.07.07.03.14.1.17.17.14.17.2.41.24.61,0,.14,0,.27.03.37v2.14h1.94c.37,0,.75,0,1.09.14.07,0,.24.1.27.14.07.14.14.27.17.41.07.37.07.78.07,1.16.03.88.03,1.73.03,2.62,0,.27,0,.58-.1.85-.03.03-.1.17-.14.2-.14.1-.31.17-.44.17-.44.07-.88.03-1.33.07-.48,0-.99-.03-1.5-.03.03,1.39,0,3.36,0,4.72,0,.2.03.37.03.58.03.41.07.82.14,1.22.07.24.17.48.37.68.37.48,1.56.51,2.11.51.27,0,.68.03.78.2.03.03.1.07.1.14.03.17.03.31.03.48,0,1.8.03,2.28.03,3.67,0,.34,0,.65-.1.95-.27,1.36-3.91,1.97-5.03,1.97Z"/>
  <path class="st0" d="M340.02,430.87c-.92,0-1.83-.03-2.75-.1-.31-.03-.61-.07-.88-.14-.07,0-.14-.03-.17-.07l-.2-.1c-.14-.07-.2-.17-.27-.27-.07-.17-.1-.34-.14-.54-.03-.1-.03-.24-.03-.34v-.07c-.03-.24-.03-.48,0-.71-.03-.24,0-.48,0-.71v-.65c0-.07,0-.1-.03-.14,0-.03.03-.07.03-.1v-6.42c0-2.31-.03-4.08-.03-6.97v-1.16c.03-.1.03-.24.03-.34.03-.2.07-.37.17-.54.03-.1.14-.2.24-.27l.2-.1c.07-.03.1-.03.17-.07.31-.07.61-.1.88-.14.92-.07,1.84-.1,2.75-.1s1.83.03,2.72.14c.24,0,.44.03.68.1l.2.1c.1,0,.31.14.34.24.14.17.2.41.2.65.03.1,0,.95,0,1.05.92-1.56,2.24-2.31,3.98-2.68.31-.07.65-.1.99,0,.14,0,.27.34.27.44.07.34.1.71.14,1.09.03,1.87.03,3.53.07,5.3,0,.48-.03.88-.07,1.29-.1.37-.48.41-.82.41-.58.03-1.19.03-1.8.07-.99,0-2.31.07-2.62,1.22v.07c0,1.12-.03,4.69-.03,6.63v2.38c-.03.1-.03.24-.03.34-.03.24-.1.48-.2.65-.07.07-.14.14-.2.17-.03.03-.1.07-.14.07-.07.07-.17.07-.24.1-.2.07-.44.1-.68.1-.88.1-1.8.14-2.72.14Z"/>
</svg>